<svg width="141" height="164" viewBox="0 0 141 164" fill="none" xmlns="http://www.w3.org/2000/svg">
<path fill-rule="evenodd" clip-rule="evenodd" d="M108.706 43.161L126.333 46.6695C131.075 47.6135 135.248 50.3989 137.932 54.413C140.617 58.427 141.594 63.3408 140.648 68.0735L124.399 149.371C123.442 154.098 120.649 158.254 116.63 160.931C112.61 163.608 107.692 164.588 102.951 163.656L-6.33302 141.903C-11.0754 140.959 -15.2479 138.173 -17.9324 134.159C-20.6169 130.145 -21.5936 125.232 -20.6477 120.499L-4.39889 39.2018C-3.9358 36.8557 -3.01284 34.6241 -1.68298 32.635C-0.353123 30.646 1.3574 28.9386 3.35036 27.6112C5.34332 26.2838 7.57936 25.3624 9.93019 24.9C12.281 24.4375 14.7003 24.4431 17.049 24.9164L34.6329 28.4165L35.2344 25.4071C36.8889 17.1879 41.7446 9.95999 48.7351 5.31084C55.7257 0.661695 64.2794 -1.02856 72.5178 0.611302L84.4528 2.98698C92.6815 4.63658 99.9191 9.47519 104.578 16.442C109.238 23.4088 110.938 31.9352 109.308 40.1516L108.706 43.161ZM53.5437 12.5008C48.464 15.8773 44.9342 21.1271 43.729 27.098L43.1276 30.1074L100.212 41.4701L100.813 38.4607C102.006 32.4914 100.775 26.2936 97.3886 21.2308C94.0027 16.1679 88.7399 12.6549 82.7584 11.4643L70.8234 9.08858C64.838 7.89716 58.6234 9.12437 53.5437 12.5008ZM71.7048 87.9777L94.2156 92.4585L90.1915 112.592L67.6807 108.111L63.1991 130.534L43.0667 126.526L47.5482 104.104L25.0374 99.623L29.0615 79.4895L51.5723 83.9703L56.0538 61.5478L76.1863 65.5552L71.7048 87.9777Z" fill="#E8EEFF"/>
</svg>
