<svg width="118" height="113" viewBox="0 0 118 113" fill="none" xmlns="http://www.w3.org/2000/svg">
<path d="M95.3609 26.622L87.4616 17.4406L85.8736 15.5963L59.1221 0L32.2891 15.6765L22.8833 26.5418L31.0268 32.1949V56.6919L59.1221 72.609L87.2988 56.6117V32.235L95.3609 26.622ZM85.9551 18.1623L88.7646 21.4098L92.9992 26.3012L88.6424 29.3483L67.9578 43.6616L60.3436 34.4001L68.1207 29.4686L84.3671 19.2047L85.9551 18.1623ZM59.1628 1.84429L84.9371 16.9194L68.65 27.2234L59.1628 33.2374L33.3885 16.9194L59.1628 1.84429ZM25.2449 26.2611L32.2891 18.1222L57.9006 34.4001L50.2863 43.6616L25.2449 26.2611ZM76.5086 60.9418L69.5458 64.871V53.0434L76.5086 48.8336V60.9418ZM78.0966 60.0197V45.987L67.9171 52.1213V65.7931L59.9364 70.3237V57.9749C59.9364 57.5339 59.57 57.1731 59.1221 57.1731C58.9185 57.1731 58.7149 57.2532 58.552 57.4136C58.3892 57.574 58.3077 57.7745 58.3077 57.9749V70.3237L32.6148 55.7297V33.3175L50.6121 45.8266L59.0814 35.4425L67.5914 45.7465L85.6293 33.3175V55.6896L78.0966 60.0197Z" fill="black"/>
<path d="M59.9366 52.8028V53.6047C59.9366 54.0457 59.5701 54.4066 59.1222 54.4066C58.6743 54.4066 58.3079 54.0457 58.3079 53.6047V52.8028C58.3079 52.3618 58.6743 52.001 59.1222 52.001C59.5701 52.001 59.9366 52.3618 59.9366 52.8028Z" fill="black"/>
<path d="M59.9366 48.4327V48.7134C59.9366 49.1544 59.5701 49.5152 59.1222 49.5152C58.6743 49.5152 58.3079 49.1544 58.3079 48.7134V48.4327C58.3079 47.9917 58.6743 47.6309 59.1222 47.6309C59.5701 47.6309 59.9366 47.9917 59.9366 48.4327Z" fill="black"/>
<path d="M12.6225 58.5764L10.1794 54.8076L0 61.2225L1.1401 63.0267L4.19393 61.1023L4.03106 61.864L5.00828 63.3876C5.65977 64.43 6.63699 65.0715 7.85852 65.3522C8.22498 65.4323 8.55072 65.4724 8.87647 65.4724C9.73154 65.4724 10.5052 65.2319 11.2788 64.7508C12.3375 64.1093 12.989 63.147 13.274 61.9442C13.5183 60.7414 13.3147 59.6188 12.6225 58.5764ZM11.1159 61.4631C10.9938 62.1046 10.6273 62.5857 10.0573 62.9065C9.48723 63.2673 8.91718 63.3475 8.2657 63.2272C7.61422 63.1069 7.1256 62.7461 6.79986 62.1848L5.53761 60.2202L9.52795 57.7344L10.7902 59.699C11.1567 60.2603 11.2788 60.8216 11.1159 61.4631Z" fill="black"/>
<path d="M18.3229 69.161L22.8019 73.3307L24.2677 71.7671L18.2415 66.1941L9.93506 74.8542L11.5231 76.2976L14.9026 72.7293L18.5265 76.0971L21.5803 75.9769L16.4092 71.2058L18.3229 69.161Z" fill="black"/>
<path d="M28.1767 74.6938L22.1505 84.9978L28.6246 88.7265L29.724 86.8822L25.0822 84.2361L30.0498 75.7764L28.1767 74.6938Z" fill="black"/>
<path d="M46.4996 84.7974L47.1104 82.7527L39.1704 80.4272L35.7501 91.8539L43.6901 94.1793L44.3008 92.1345L38.4375 90.4506L39.2111 87.7643L43.9751 89.1676L46.6625 87.7242L39.8219 85.7597L40.6363 83.0734L46.4996 84.7974Z" fill="black"/>
<path d="M57.6563 83.9153C55.9869 83.8351 54.5211 84.3964 53.2995 85.4789C52.078 86.6015 51.4265 87.9647 51.3451 89.6085C51.2636 91.2523 51.8337 92.6957 52.9331 93.8985C54.0732 95.1013 55.4576 95.7428 57.127 95.823L60.873 95.9834L61.158 89.0472L54.9689 88.8066L57.0456 91.0118L58.9186 91.092L58.7964 93.7782L57.2084 93.698C56.109 93.6579 55.254 93.257 54.5211 92.4551C53.7881 91.6533 53.4624 90.7712 53.5031 89.6887C53.5438 88.6062 53.951 87.7642 54.7654 87.0024C55.5797 86.2808 56.4755 85.96 57.5749 86.0001L61.3209 86.1605L61.4024 84.0355L57.6563 83.9153Z" fill="black"/>
<path d="M71.256 92.6559L70.6453 89.9295L75.4499 88.847L77.0787 86.3211L70.1566 87.8848L69.5052 85.1584L75.4907 83.8353L75.0021 81.7505L66.9399 83.5547L69.6273 95.1818L77.6894 93.3776L77.2008 91.2927L71.256 92.6559Z" fill="black"/>
<path d="M91.737 83.5947C91.2891 82.7527 90.5969 82.1914 89.7011 81.8706C89.9862 80.9485 89.9047 80.0664 89.4568 79.2245C89.0089 78.3825 88.3167 77.7811 87.3802 77.5005C86.4437 77.2198 85.5479 77.2599 84.6521 77.7009L79.766 80.1466L85.3036 90.7313L90.1897 88.2856C91.0448 87.8445 91.6556 87.163 91.9406 86.2408C92.2256 85.3588 92.1849 84.4767 91.737 83.5947ZM89.9047 85.6394C89.7826 86.0003 89.579 86.2809 89.2125 86.4413L86.2401 87.9247L82.6977 81.1089L85.6701 79.6254C86.0365 79.465 86.3623 79.4249 86.7287 79.5452C87.0952 79.6655 87.3802 79.866 87.5431 80.2268C87.7467 80.5877 87.7467 80.9084 87.6245 81.2692C87.5024 81.6301 87.2988 81.9107 86.9323 82.0711L84.5707 83.2739L86.9323 84.4767L87.9503 83.9555C88.3167 83.7951 88.6425 83.755 89.0089 83.8753C89.3754 83.9956 89.6604 84.196 89.8233 84.5569C89.9862 84.9177 90.0269 85.2385 89.9047 85.6394Z" fill="black"/>
<path d="M104.807 69.9229C103.667 68.7201 102.242 68.0786 100.573 68.0385C98.9034 67.9984 97.4375 68.5196 96.2567 69.6423C95.0352 70.7649 94.3837 72.1681 94.343 73.812C94.3023 75.4558 94.8316 76.8991 95.9717 78.0618C97.1118 79.2646 98.5369 79.9061 100.206 79.9462C100.288 79.9462 100.369 79.9462 100.451 79.9462C101.998 79.9462 103.382 79.3849 104.563 78.3425C105.174 77.7812 105.622 77.1397 105.948 76.4581C106.273 75.7765 106.436 75.0147 106.477 74.1728C106.518 72.529 105.948 71.1257 104.807 69.9229ZM103.057 76.7789C102.242 77.5005 101.346 77.8614 100.288 77.8213C99.1884 77.7812 98.3333 77.3803 97.5597 76.6185C96.8268 75.8567 96.4603 74.9346 96.501 73.8921C96.5418 72.8096 96.9489 71.9677 97.7226 71.2059C98.4962 70.5243 99.3513 70.1635 100.369 70.1635C100.41 70.1635 100.451 70.1635 100.532 70.1635C101.631 70.2036 102.487 70.6045 103.26 71.3663C103.993 72.128 104.36 73.0502 104.319 74.0926C104.278 75.1751 103.871 76.0572 103.057 76.7789Z" fill="black"/>
<path d="M118 61.6237L110.834 61.5435L107.821 55.1687L106.436 57.2936L108.472 61.5435L103.667 61.5034L102.324 63.6284L109.449 63.6685L112.503 70.0433L113.847 67.9585L111.852 63.6685L116.616 63.7086L118 61.6237Z" fill="black"/>
<path d="M24.2676 97.2261L26.5478 98.4289C28.258 99.3109 28.828 101.075 27.9322 102.799C27.0771 104.523 25.3263 105.084 23.6161 104.202L21.3359 102.999L24.2676 97.2261ZM24.0233 103.28C25.2041 103.882 26.3442 103.521 26.955 102.318C27.5658 101.115 27.1993 99.9524 26.0185 99.351L24.7562 98.6694L22.7611 102.639L24.0233 103.28Z" fill="black"/>
<path d="M39.7812 108.933L36.931 108.132L35.9538 109.415L34.8544 109.094L39.1297 103.601L40.1477 103.882L40.962 110.858L39.8627 110.537L39.7812 108.933ZM39.6591 107.931L39.3333 104.884L37.501 107.29L39.6591 107.931Z" fill="black"/>
<path d="M56.1496 106.448L55.661 112.903L54.5617 112.822L54.7652 110.056L51.7114 109.815L51.5078 112.582L50.4084 112.502L50.8971 106.047L51.9964 106.127L51.7928 108.813L54.8467 109.054L55.0503 106.367L56.1496 106.448Z" fill="black"/>
<path d="M70.238 111.179L70.3602 112.181L65.9627 112.662L65.2297 106.207L69.5051 105.726L69.6273 106.728L66.4513 107.089L66.6549 108.773L69.4644 108.452L69.5865 109.454L66.777 109.775L66.9806 111.539L70.238 111.179Z" fill="black"/>
<path d="M78.2188 103.841L79.2774 103.521L81.0283 109.735L79.9696 110.056L78.2188 103.841Z" fill="black"/>
<path d="M95.5644 103.721L93.6914 99.8724L93.5285 103.922L93.0806 104.162L89.8232 101.917L91.6962 105.726L90.7597 106.207L87.9094 100.394L88.7238 99.9927L92.7141 102.759L92.877 97.8677L93.6914 97.4668L96.5416 103.28L95.5644 103.721Z" fill="black"/>
</svg>
