<svg width="20" height="20" viewBox="0 0 20 20" fill="none" xmlns="http://www.w3.org/2000/svg">
<path fill-rule="evenodd" clip-rule="evenodd" d="M6.22087 0.888252C7.19837 0.843252 7.51004 0.833252 10 0.833252C12.49 0.833252 12.8017 0.844085 13.7784 0.888252C14.755 0.932419 15.4217 1.08825 16.005 1.31409C16.6159 1.54492 17.17 1.90575 17.6284 2.37242C18.095 2.82992 18.455 3.38325 18.685 3.99492C18.9117 4.57825 19.0667 5.24492 19.1117 6.21992C19.1567 7.19908 19.1667 7.51075 19.1667 9.99992C19.1667 12.4899 19.1559 12.8016 19.1117 13.7791C19.0675 14.7541 18.9117 15.4207 18.685 16.0041C18.455 16.6158 18.0944 17.1701 17.6284 17.6282C17.17 18.0949 16.6159 18.4549 16.005 18.6849C15.4217 18.9116 14.755 19.0666 13.78 19.1116C12.8017 19.1566 12.49 19.1666 10 19.1666C7.51004 19.1666 7.19837 19.1557 6.22087 19.1116C5.24587 19.0674 4.57921 18.9116 3.99587 18.6849C3.38414 18.4549 2.82989 18.0943 2.37171 17.6282C1.90536 17.1705 1.54447 16.6165 1.31421 16.0049C1.08837 15.4216 0.933374 14.7549 0.888374 13.7799C0.843374 12.8007 0.833374 12.4891 0.833374 9.99992C0.833374 7.50992 0.844207 7.19825 0.888374 6.22158C0.932541 5.24492 1.08837 4.57825 1.31421 3.99492C1.54481 3.38332 1.90597 2.82935 2.37254 2.37159C2.83007 1.90534 3.38377 1.54445 3.99504 1.31409C4.57837 1.08825 5.24504 0.933252 6.22004 0.888252H6.22087ZM13.7042 2.53825C12.7375 2.49408 12.4475 2.48492 10 2.48492C7.55254 2.48492 7.26254 2.49408 6.29587 2.53825C5.40171 2.57908 4.91671 2.72825 4.59337 2.85408C4.16587 3.02075 3.86004 3.21825 3.53921 3.53908C3.23508 3.83496 3.00102 4.19515 2.85421 4.59325C2.72837 4.91658 2.57921 5.40158 2.53837 6.29575C2.49421 7.26242 2.48504 7.55242 2.48504 9.99992C2.48504 12.4474 2.49421 12.7374 2.53837 13.7041C2.57921 14.5982 2.72837 15.0833 2.85421 15.4066C3.00087 15.8041 3.23504 16.1649 3.53921 16.4607C3.83504 16.7649 4.19587 16.9991 4.59337 17.1458C4.91671 17.2716 5.40171 17.4207 6.29587 17.4616C7.26254 17.5057 7.55171 17.5149 10 17.5149C12.4484 17.5149 12.7375 17.5057 13.7042 17.4616C14.5984 17.4207 15.0834 17.2716 15.4067 17.1458C15.8342 16.9791 16.14 16.7816 16.4609 16.4607C16.765 16.1649 16.9992 15.8041 17.1459 15.4066C17.2717 15.0833 17.4209 14.5982 17.4617 13.7041C17.5059 12.7374 17.515 12.4474 17.515 9.99992C17.515 7.55242 17.5059 7.26242 17.4617 6.29575C17.4209 5.40158 17.2717 4.91658 17.1459 4.59325C16.9792 4.16575 16.7817 3.85992 16.4609 3.53908C16.165 3.23498 15.8048 3.00093 15.4067 2.85408C15.0834 2.72825 14.5984 2.57908 13.7042 2.53825ZM8.82921 12.8257C9.48309 13.0979 10.2112 13.1347 10.8891 12.9297C11.5671 12.7247 12.1529 12.2907 12.5464 11.7018C12.9399 11.1129 13.1167 10.4056 13.0467 9.70084C12.9767 8.99603 12.6642 8.33739 12.1625 7.83742C11.8427 7.51781 11.456 7.27309 11.0303 7.12087C10.6046 6.96865 10.1504 6.91272 9.70045 6.9571C9.25051 7.00148 8.816 7.14507 8.42821 7.37753C8.04042 7.60999 7.70899 7.92554 7.45779 8.30146C7.20659 8.67738 7.04186 9.10432 6.97547 9.55155C6.90907 9.99878 6.94267 10.4552 7.07382 10.8878C7.20498 11.3205 7.43044 11.7188 7.73397 12.0539C8.03751 12.3889 8.41156 12.6526 8.82921 12.8257ZM6.66837 6.66825C7.10589 6.23073 7.62531 5.88367 8.19695 5.64689C8.7686 5.4101 9.38129 5.28823 10 5.28823C10.6188 5.28823 11.2315 5.4101 11.8031 5.64689C12.3748 5.88367 12.8942 6.23073 13.3317 6.66825C13.7692 7.10577 14.1163 7.62518 14.3531 8.19683C14.5899 8.76848 14.7117 9.38117 14.7117 9.99992C14.7117 10.6187 14.5899 11.2314 14.3531 11.803C14.1163 12.3747 13.7692 12.8941 13.3317 13.3316C12.4481 14.2152 11.2497 14.7116 10 14.7116C8.75042 14.7116 7.55198 14.2152 6.66837 13.3316C5.78476 12.448 5.28835 11.2495 5.28835 9.99992C5.28835 8.7503 5.78476 7.55186 6.66837 6.66825ZM15.7567 5.98992C15.8651 5.88764 15.9519 5.76465 16.012 5.62823C16.072 5.49181 16.104 5.34473 16.1062 5.19569C16.1084 5.04666 16.0806 4.89871 16.0246 4.76059C15.9686 4.62248 15.8854 4.49701 15.78 4.39162C15.6746 4.28622 15.5491 4.20305 15.411 4.14702C15.2729 4.09098 15.125 4.06323 14.9759 4.0654C14.8269 4.06758 14.6798 4.09963 14.5434 4.15967C14.407 4.2197 14.284 4.3065 14.1817 4.41492C13.9828 4.62578 13.8739 4.90585 13.8781 5.19569C13.8823 5.48553 13.9994 5.76232 14.2043 5.96729C14.4093 6.17226 14.6861 6.28927 14.9759 6.2935C15.2658 6.29773 15.5458 6.18883 15.7567 5.98992Z" fill="black"/>
</svg>
