<svg width="172" height="172" viewBox="0 0 172 172" fill="none" xmlns="http://www.w3.org/2000/svg">
<g filter="url(#filter0_d_19_334)">
<circle cx="86.244" cy="60.8478" r="37.1648" fill="white"/>
</g>
<path fill-rule="evenodd" clip-rule="evenodd" d="M65.4755 55.8425C65.4755 51.7204 68.8171 48.3787 72.9393 48.3787H97.1748C97.8855 48.3787 98.4617 48.9549 98.4617 49.6656C98.4617 50.3763 97.8855 50.9524 97.1748 50.9524H72.9393C70.2385 50.9524 68.0492 53.1418 68.0492 55.8425V72.3143C68.0492 75.015 70.2385 77.2044 72.9393 77.2044H97.647C100.348 77.2044 102.537 75.015 102.537 72.3143V57.9015C102.537 57.1908 103.113 56.6146 103.824 56.6146C104.535 56.6146 105.111 57.1908 105.111 57.9015V72.3143C105.111 76.4364 101.769 79.7781 97.647 79.7781H72.9393C68.8171 79.7781 65.4755 76.4364 65.4755 72.3143V55.8425Z" fill="#86A7FF"/>
<path fill-rule="evenodd" clip-rule="evenodd" d="M103.309 50.1178C102.456 50.1178 101.765 50.8091 101.765 51.662C101.765 52.5149 102.456 53.2062 103.309 53.2062C104.162 53.2062 104.853 52.5149 104.853 51.662C104.853 50.8091 104.162 50.1178 103.309 50.1178ZM99.7059 51.662C99.7059 49.672 101.319 48.0588 103.309 48.0588C105.299 48.0588 106.912 49.672 106.912 51.662C106.912 53.652 105.299 55.2652 103.309 55.2652C101.319 55.2652 99.7059 53.652 99.7059 51.662Z" fill="#86A7FF"/>
<path fill-rule="evenodd" clip-rule="evenodd" d="M77.0571 62.0194C77.0571 60.8823 77.979 59.9604 79.1161 59.9604H82.2046C82.7731 59.9604 83.2341 60.4214 83.2341 60.9899C83.2341 61.5585 82.7731 62.0194 82.2046 62.0194H79.1161V66.1374H82.2046C82.7731 66.1374 83.2341 66.5983 83.2341 67.1669C83.2341 67.7354 82.7731 68.1963 82.2046 68.1963H79.1161C77.979 68.1963 77.0571 67.2745 77.0571 66.1374V62.0194ZM87.352 60.9899C87.352 60.4214 87.8129 59.9604 88.3815 59.9604H91.47C92.6071 59.9604 93.5289 60.8823 93.5289 62.0194V66.1374C93.5289 67.2745 92.6071 68.1963 91.47 68.1963H88.3815C87.8129 68.1963 87.352 67.7354 87.352 67.1669C87.352 66.5983 87.8129 66.1374 88.3815 66.1374H91.47V62.0194H88.3815C87.8129 62.0194 87.352 61.5585 87.352 60.9899Z" fill="#86A7FF"/>
<path fill-rule="evenodd" clip-rule="evenodd" d="M87.352 60.9909L87.352 57.9025L83.2341 57.9025L83.2341 60.9909C83.2341 61.5595 82.7732 62.0204 82.2046 62.0204C81.636 62.0204 81.1751 61.5595 81.1751 60.9909L81.1751 57.9025C81.1751 56.7653 82.0969 55.8435 83.2341 55.8435L87.352 55.8435C88.4892 55.8435 89.411 56.7653 89.411 57.9025L89.411 60.9909C89.411 61.5595 88.9501 62.0204 88.3815 62.0204C87.813 62.0204 87.352 61.5595 87.352 60.9909ZM87.352 70.2563L87.352 67.1679C87.352 66.5993 87.813 66.1384 88.3815 66.1384C88.9501 66.1384 89.411 66.5993 89.411 67.1679L89.411 70.2563C89.411 71.3935 88.4892 72.3153 87.352 72.3153L83.2341 72.3153C82.0969 72.3153 81.1751 71.3935 81.1751 70.2563L81.1751 67.1679C81.1751 66.5993 81.636 66.1384 82.2046 66.1384C82.7732 66.1384 83.2341 66.5993 83.2341 67.1679L83.2341 70.2563L87.352 70.2563Z" fill="#86A7FF"/>
<path fill-rule="evenodd" clip-rule="evenodd" d="M76.7998 44.5183C76.7998 42.6704 78.2978 41.1724 80.1456 41.1724H90.4405C92.2884 41.1724 93.7864 42.6704 93.7864 44.5183V49.6657H91.2126V44.5183C91.2126 44.0918 90.867 43.7461 90.4405 43.7461H80.1456C79.7192 43.7461 79.3735 44.0918 79.3735 44.5183V49.6657H76.7998V44.5183Z" fill="#86A7FF"/>
<defs>
<filter id="filter0_d_19_334" x="0.983624" y="0.728296" width="170.521" height="170.521" filterUnits="userSpaceOnUse" color-interpolation-filters="sRGB">
<feFlood flood-opacity="0" result="BackgroundImageFix"/>
<feColorMatrix in="SourceAlpha" type="matrix" values="0 0 0 0 0 0 0 0 0 0 0 0 0 0 0 0 0 0 127 0" result="hardAlpha"/>
<feMorphology radius="6.55849" operator="erode" in="SourceAlpha" result="effect1_dropShadow_19_334"/>
<feOffset dy="25.1409"/>
<feGaussianBlur stdDeviation="27.327"/>
<feColorMatrix type="matrix" values="0 0 0 0 0.52549 0 0 0 0 0.654902 0 0 0 0 1 0 0 0 0.14 0"/>
<feBlend mode="normal" in2="BackgroundImageFix" result="effect1_dropShadow_19_334"/>
<feBlend mode="normal" in="SourceGraphic" in2="effect1_dropShadow_19_334" result="shape"/>
</filter>
</defs>
</svg>
