<svg width="171" height="171" viewBox="0 0 171 171" fill="none" xmlns="http://www.w3.org/2000/svg">
<g filter="url(#filter0_d_19_328)">
<circle cx="85.2691" cy="60.1937" r="37.1648" fill="white"/>
</g>
<path fill-rule="evenodd" clip-rule="evenodd" d="M93.9355 54.999C94.5535 55.4779 94.6663 56.3671 94.1875 56.9851L88.6588 64.1205C88.4279 64.4186 88.0876 64.6122 87.7133 64.6584C87.3391 64.7046 86.9619 64.5996 86.6653 64.3667L81.3455 60.1878L76.5679 66.3972C76.0912 67.0169 75.2024 67.1327 74.5827 66.656C73.9631 66.1792 73.8472 65.2904 74.324 64.6707L79.9736 57.3281C80.204 57.0285 80.5447 56.8336 80.9196 56.7866C81.2946 56.7397 81.6728 56.8446 81.97 57.0781L87.2936 61.2599L91.9494 55.251C92.4283 54.633 93.3174 54.5202 93.9355 54.999Z" fill="#86A7FF"/>
<path fill-rule="evenodd" clip-rule="evenodd" d="M99.523 43.3495C98.3011 43.3495 97.3105 44.3401 97.3105 45.562C97.3105 46.784 98.3011 47.7745 99.523 47.7745C100.745 47.7745 101.736 46.784 101.736 45.562C101.736 44.3401 100.745 43.3495 99.523 43.3495ZM94.4792 45.562C94.4792 42.7764 96.7374 40.5182 99.523 40.5182C102.309 40.5182 104.567 42.7764 104.567 45.562C104.567 48.3476 102.309 50.6058 99.523 50.6058C96.7374 50.6058 94.4792 48.3476 94.4792 45.562Z" fill="#86A7FF"/>
<path fill-rule="evenodd" clip-rule="evenodd" d="M68.4525 45.2843C70.3397 43.2486 73.0331 42.1078 76.2265 42.1078H89.9444C90.7262 42.1078 91.36 42.7416 91.36 43.5234C91.36 44.3053 90.7262 44.9391 89.9444 44.9391H76.2265C73.7359 44.9391 71.8249 45.8111 70.5288 47.2091C69.2215 48.6193 68.4335 50.6814 68.4335 53.2331V68.4886C68.4335 71.0473 69.2084 73.1034 70.5043 74.5054C71.7878 75.8939 73.6956 76.7653 76.2265 76.7653H92.4668C94.9594 76.7653 96.8704 75.8963 98.1657 74.5026C99.4719 73.0971 100.26 71.04 100.26 68.4886V55.2026C100.26 54.4208 100.894 53.787 101.675 53.787C102.457 53.787 103.091 54.4208 103.091 55.2026V68.4886C103.091 71.6213 102.117 74.4103 100.24 76.43C98.3516 78.4614 95.6584 79.5966 92.4668 79.5966H76.2265C73.0042 79.5966 70.3078 78.4638 68.4252 76.4272C66.5551 74.404 65.6023 71.614 65.6023 68.4886V53.2331C65.6023 50.1006 66.5765 47.3079 68.4525 45.2843Z" fill="#86A7FF"/>
<defs>
<filter id="filter0_d_19_328" x="0.00876999" y="0.074213" width="170.521" height="170.521" filterUnits="userSpaceOnUse" color-interpolation-filters="sRGB">
<feFlood flood-opacity="0" result="BackgroundImageFix"/>
<feColorMatrix in="SourceAlpha" type="matrix" values="0 0 0 0 0 0 0 0 0 0 0 0 0 0 0 0 0 0 127 0" result="hardAlpha"/>
<feMorphology radius="6.55849" operator="erode" in="SourceAlpha" result="effect1_dropShadow_19_328"/>
<feOffset dy="25.1409"/>
<feGaussianBlur stdDeviation="27.327"/>
<feColorMatrix type="matrix" values="0 0 0 0 0.52549 0 0 0 0 0.654902 0 0 0 0 1 0 0 0 0.14 0"/>
<feBlend mode="normal" in2="BackgroundImageFix" result="effect1_dropShadow_19_328"/>
<feBlend mode="normal" in="SourceGraphic" in2="effect1_dropShadow_19_328" result="shape"/>
</filter>
</defs>
</svg>
